<?xml version="1.0" encoding="utf-8"?>
<svg version="1.1" id="Layer_1" xmlns="http://www.w3.org/2000/svg" xmlns:xlink="http://www.w3.org/1999/xlink" x="0px" y="0px"
	 viewBox="0 0 256 256" style="enable-background:new 0 0 256 256;" xml:space="preserve">
<style type="text/css">
	.st0{fill:#2782D7;}
	.st1{opacity:0.8;}
	.st2{fill:#FFFFFF;}
</style>
<g>
	<rect x="-0.5" y="0" class="st0" width="257" height="256"/>
</g>
<rect y="98" class="st1" width="256" height="60"/>
<g>
	<path class="st2" d="M6.6,136.1H5l8.7-14.5h1.6L6.6,136.1z"/>
	<path class="st2" d="M20,129.9l0-3l-2.3,1.7l-0.8-1.4l2.7-1.3l-2.7-1.3l0.8-1.4l2.3,1.7l0-3.1h1.7l0,3.1L24,123l0.8,1.4l-2.7,1.3
		l2.7,1.3l-0.8,1.4l-2.3-1.7l0,3H20z"/>
	<path class="st2" d="M33.2,135.7L31.6,122h1.6l0.9,8.3l0.1,1.4h0l0.2-1.4l1.4-8.3h1.6l1.6,8.6l0.2,1.3h0l0.1-1.3l1-8.6h1.4
		l-1.7,13.6h-1.7l-1.8-9.2l-0.2-1.4h0l-0.2,1.4l-1.6,9.2H33.2z"/>
	<path class="st2" d="M45.4,130.7v5h-1.8V122h3.4c1.4,0,2.4,0.2,3,0.5s1.1,0.8,1.5,1.4s0.5,1.3,0.5,2c0,0.9-0.2,1.7-0.7,2.4
		s-1.1,1.3-1.9,1.7s-1.9,0.6-3.3,0.6H45.4z M45.4,129.3h0.8c1.1,0,1.9-0.1,2.4-0.4c0.5-0.3,0.9-0.7,1.2-1.2c0.3-0.5,0.4-1.1,0.4-1.7
		c0-0.8-0.3-1.4-0.8-1.9c-0.5-0.5-1.5-0.7-3-0.7h-1.1V129.3z"/>
	<path class="st2" d="M59.1,135.7L57.5,122h1.6l0.9,8.3l0.1,1.4h0l0.2-1.4l1.4-8.3h1.6l1.6,8.6l0.2,1.3h0l0.1-1.3l1-8.6h1.4
		l-1.7,13.6h-1.7l-1.8-9.2l-0.2-1.4h0l-0.2,1.4l-1.6,9.2H59.1z"/>
	<path class="st2" d="M77.6,135c-1.3,0.6-2.5,0.9-3.7,0.9c-0.9,0-1.7-0.2-2.4-0.7c-0.7-0.4-1.3-1.1-1.7-1.9
		c-0.4-0.8-0.6-1.7-0.6-2.6c0-0.9,0.2-1.8,0.6-2.6c0.4-0.8,1-1.5,1.7-1.9s1.5-0.7,2.4-0.7c1.2,0,2.1,0.4,2.8,1.2
		c0.7,0.8,1.1,2.1,1.1,3.8v0.4H71c0,0.7,0.1,1.3,0.4,1.9s0.7,1,1.1,1.3c0.5,0.3,1,0.4,1.6,0.4c1.1,0,2.2-0.4,3.5-1.1V135z M71,129.8
		h4.9v-0.2c0-0.8-0.2-1.4-0.6-1.9s-0.9-0.7-1.6-0.7c-0.7,0-1.2,0.2-1.7,0.7C71.6,128.1,71.2,128.9,71,129.8z"/>
	<path class="st2" d="M83,135.7v-8.5h-2.7v-1.4h4.4v8.5h2.7v1.4H83z M82.7,122.3c0-0.4,0.1-0.6,0.4-0.8c0.3-0.2,0.5-0.3,0.7-0.3
		c0.2,0,0.5,0.1,0.7,0.3c0.2,0.2,0.4,0.5,0.4,0.8c0,0.4-0.1,0.6-0.4,0.8c-0.3,0.2-0.5,0.3-0.7,0.3c-0.2,0-0.5-0.1-0.7-0.3
		C82.8,122.9,82.7,122.7,82.7,122.3z"/>
	<path class="st2" d="M92,135.7h-1.9l3.9-5.1l-3.6-4.7h2.1l2.5,3.3l2.5-3.3h1.9l-3.4,4.5l4,5.3h-2.1l-3-3.9L92,135.7z"/>
	<path class="st2" d="M104.6,135.7v-8.5h-2.7v-1.4h4.4v8.5h2.7v1.4H104.6z M104.3,122.3c0-0.4,0.1-0.6,0.4-0.8
		c0.3-0.2,0.5-0.3,0.7-0.3c0.2,0,0.5,0.1,0.7,0.3c0.2,0.2,0.4,0.5,0.4,0.8c0,0.4-0.1,0.6-0.4,0.8c-0.3,0.2-0.5,0.3-0.7,0.3
		c-0.2,0-0.5-0.1-0.7-0.3C104.4,122.9,104.3,122.7,104.3,122.3z"/>
	<path class="st2" d="M112.6,135.7v-9.8h1.6v2.1c0.5-0.8,1-1.3,1.7-1.8s1.3-0.6,2-0.6c0.6,0,1.1,0.2,1.6,0.5s0.8,0.7,1,1.2
		c0.2,0.5,0.3,1.5,0.3,2.9v5.5h-1.6V130c0-0.9,0-1.6-0.1-1.9s-0.3-0.5-0.5-0.7c-0.2-0.2-0.5-0.3-0.8-0.3c-0.6,0-1.2,0.3-1.9,0.8
		c-0.7,0.5-1.2,1.2-1.6,2v5.7H112.6z"/>
	<path class="st2" d="M130.1,135.7V122h2.7c1.6,0,2.7,0.1,3.2,0.4s0.9,0.6,1.2,1.1s0.4,1,0.4,1.6c0,0.5-0.1,0.9-0.2,1.4
		s-0.4,0.8-0.7,1.2s-0.8,0.7-1.4,1c1.1,0.4,1.8,1,2.2,1.6s0.6,1.3,0.6,1.9c0,0.6-0.2,1.2-0.5,1.8c-0.3,0.6-0.8,1-1.4,1.3
		s-1.5,0.5-2.8,0.5H130.1z M131.8,128.2h1.9c0.6-0.3,1-0.5,1.3-0.8s0.5-0.6,0.6-0.9c0.1-0.3,0.2-0.7,0.2-1.1c0-0.6-0.2-1.1-0.6-1.4
		c-0.4-0.3-1.1-0.5-2.2-0.5h-1.2V128.2z M131.8,134.3h1.7c0.9,0,1.6-0.2,2.1-0.7c0.4-0.4,0.7-1,0.7-1.6c0-0.5-0.1-0.9-0.4-1.3
		s-0.6-0.7-1.1-0.9s-1.3-0.3-2.4-0.3h-0.5V134.3z"/>
	<path class="st2" d="M141.5,135.7v-9.8h1.6v2.1c0.5-0.8,1.1-1.4,1.8-1.8c0.7-0.4,1.4-0.6,2.2-0.6c0.6,0,1.2,0.1,1.8,0.3v3.5h-1.6
		v-2.2c-0.3,0-0.5-0.1-0.7-0.1c-0.6,0-1.2,0.2-1.8,0.7s-1.2,1.2-1.7,2.2v5.7H141.5z"/>
	<path class="st2" d="M155.5,135.9c-1.4,0-2.5-0.5-3.4-1.5s-1.3-2.2-1.3-3.7s0.4-2.7,1.3-3.7s2-1.5,3.4-1.5c1.4,0,2.5,0.5,3.4,1.5
		s1.3,2.2,1.3,3.7s-0.4,2.7-1.3,3.7S156.9,135.9,155.5,135.9z M155.5,134.6c0.9,0,1.6-0.3,2.1-1s0.8-1.6,0.8-2.8
		c0-1.2-0.3-2.1-0.8-2.8s-1.2-1-2.1-1c-0.9,0-1.6,0.3-2.1,1s-0.8,1.6-0.8,2.8c0,1.2,0.3,2.1,0.8,2.8S154.7,134.6,155.5,134.6z"/>
	<path class="st2" d="M168.8,133.5c-0.5,0.8-1.1,1.4-1.8,1.8s-1.3,0.6-1.9,0.6c-0.8,0-1.6-0.4-2.2-1.1s-1-1.8-1-3.2
		c0-1.1,0.2-2.2,0.7-3c0.4-0.9,1-1.6,1.7-2.1s1.6-0.8,2.7-0.8c0.3,0,0.8,0,1.4,0.1c0.1,0,0.2,0,0.4,0h1.6v6.9c0,1.2,0.1,2.1,0.4,2.9
		h-1.7C168.9,135.1,168.8,134.4,168.8,133.5z M168.8,131.5v-4.2c-0.6-0.2-1.1-0.2-1.6-0.2c-1,0-1.9,0.4-2.5,1.2
		c-0.7,0.8-1,1.8-1,3.2c0,1,0.2,1.7,0.5,2.2c0.4,0.5,0.8,0.7,1.3,0.7c0.5,0,1.1-0.3,1.7-0.8C167.7,133.1,168.3,132.4,168.8,131.5z"
		/>
	<path class="st2" d="M179.7,133.5c-0.5,0.8-1.1,1.4-1.8,1.9s-1.3,0.6-1.9,0.6c-0.8,0-1.6-0.4-2.2-1.1s-1-1.8-1-3.2
		c0-1.1,0.2-2.2,0.7-3c0.4-0.9,1-1.6,1.7-2.1s1.6-0.8,2.7-0.8c0.3,0,0.8,0,1.4,0.1c0.1,0,0.2,0,0.4,0v-4.4h1.6v14.2h-1.6V133.5z
		 M179.7,131.5v-4.2c-0.6-0.2-1.1-0.2-1.6-0.2c-1,0-1.9,0.4-2.5,1.2c-0.7,0.8-1,1.8-1,3.2c0,1,0.2,1.7,0.5,2.2
		c0.4,0.5,0.8,0.7,1.3,0.7c0.5,0,1.1-0.3,1.7-0.8C178.6,133.1,179.2,132.4,179.7,131.5z"/>
	<path class="st2" d="M192.2,135.4c-1.1,0.4-2.1,0.6-3.1,0.6c-1,0-1.9-0.2-2.6-0.7c-0.8-0.5-1.4-1.1-1.8-1.8s-0.6-1.7-0.6-2.7
		c0-1.5,0.5-2.7,1.5-3.7c1-1,2.1-1.5,3.5-1.5c1,0,2.1,0.2,3.2,0.6v1.6c-1.1-0.5-2.2-0.8-3.1-0.8c-0.6,0-1.2,0.1-1.7,0.4
		s-0.9,0.8-1.2,1.4s-0.4,1.3-0.4,1.9c0,0.9,0.3,1.7,0.8,2.5c0.6,0.8,1.4,1.2,2.6,1.2c0.4,0,0.7,0,1.1-0.1s1-0.2,1.9-0.5V135.4z"/>
	<path class="st2" d="M201.2,133.5c-0.5,0.8-1.1,1.4-1.8,1.8s-1.3,0.6-1.9,0.6c-0.8,0-1.6-0.4-2.2-1.1s-1-1.8-1-3.2
		c0-1.1,0.2-2.2,0.7-3c0.4-0.9,1-1.6,1.7-2.1s1.6-0.8,2.7-0.8c0.3,0,0.8,0,1.4,0.1c0.1,0,0.2,0,0.4,0h1.6v6.9c0,1.2,0.1,2.1,0.4,2.9
		h-1.7C201.4,135.1,201.2,134.4,201.2,133.5z M201.2,131.5v-4.2c-0.6-0.2-1.1-0.2-1.6-0.2c-1,0-1.9,0.4-2.5,1.2
		c-0.7,0.8-1,1.8-1,3.2c0,1,0.2,1.7,0.5,2.2c0.4,0.5,0.8,0.7,1.3,0.7c0.5,0,1.1-0.3,1.7-0.8C200.1,133.1,200.7,132.4,201.2,131.5z"
		/>
	<path class="st2" d="M205.6,135.1v-1.7c0.7,0.4,1.4,0.7,2.1,0.9s1.4,0.3,1.9,0.3c0.8,0,1.4-0.1,1.8-0.4s0.5-0.6,0.5-1
		c0-0.3-0.1-0.5-0.3-0.7s-0.6-0.4-1.3-0.7l-0.6-0.2l-1.1-0.4c-1.2-0.5-2-0.9-2.3-1.3c-0.3-0.4-0.5-0.9-0.5-1.5c0-0.8,0.3-1.5,0.9-2
		c0.6-0.5,1.6-0.8,3-0.8c1,0,2,0.2,3,0.5v1.5c-1.1-0.4-2.1-0.6-3-0.6c-0.7,0-1.2,0.1-1.6,0.4c-0.4,0.2-0.6,0.5-0.6,0.9
		c0,0.4,0.2,0.6,0.5,0.8c0.3,0.2,0.9,0.5,1.6,0.7l1.1,0.4c1,0.4,1.7,0.8,2.1,1.2c0.4,0.4,0.6,1,0.6,1.6c0,0.8-0.3,1.5-1,2.1
		s-1.7,0.8-3.1,0.8C208.2,135.9,207,135.7,205.6,135.1z"/>
	<path class="st2" d="M224.5,135.3c-0.8,0.3-1.3,0.5-1.7,0.6s-0.7,0.1-1,0.1c-0.7,0-1.3-0.1-1.9-0.4s-1-0.7-1.3-1.2
		c-0.3-0.5-0.4-1.3-0.4-2.4v-4h-2.5v-1.4h2.5v-4h1.6v4h4.4v1.4h-4.4v3.9c0,0.8,0.1,1.3,0.3,1.7s0.4,0.6,0.8,0.7s0.7,0.2,1.1,0.2
		c0.8,0,1.6-0.2,2.5-0.7V135.3z"/>
	<path class="st2" d="M234.3,129.9l0-3l-2.3,1.7l-0.8-1.4l2.7-1.3l-2.7-1.3l0.8-1.4l2.3,1.7l0-3.1h1.7l0,3.1l2.3-1.7l0.8,1.4
		l-2.7,1.3l2.7,1.3l-0.8,1.4l-2.3-1.7l0,3H234.3z"/>
	<path class="st2" d="M242.4,136.1h-1.6l8.7-14.5h1.6L242.4,136.1z"/>
</g>
<g>
	<path class="st2" d="M217.9,14.9h-49.6c-2,0-3.7,1.7-3.7,3.7v59.7c0,2,1.7,3.7,3.7,3.7h49.6c2,0,3.7-1.7,3.7-3.7V18.6
		C221.6,16.5,219.9,14.9,217.9,14.9z M175.6,24.7c2.4,0,4.3,1.9,4.3,4.3c0,2.4-1.9,4.3-4.3,4.3c-2.4,0-4.3-1.9-4.3-4.3
		C171.2,26.6,173.2,24.7,175.6,24.7z M171.2,47.6h13.9v5.7h-13.9V47.6z M188.6,61.5h-17.4v-5.7h17.4V61.5z M199.5,44.9h-28.3v-5.7
		h28.3V44.9z"/>
</g>
<g>
	<path d="M22.7,48.4c0-17.2,13.9-31.1,31.1-31.1c17.2,0,31.2,13.9,31.2,31.1c0,17.3-14,31.2-31.2,31.1
		C36.5,79.5,22.7,65.6,22.7,48.4z M24.5,48.4c-0.1,16.1,12.9,29.2,29.2,29.4C69.8,77.9,83,64.8,83.1,48.5
		c0.1-16.2-13-29.3-29.2-29.4C37.7,19,24.6,32.1,24.5,48.4z"/>
	<path class="st2" d="M24.5,48.4C24.6,32.1,37.7,19,53.9,19.1c16.3,0.1,29.3,13.2,29.2,29.4C83,64.8,69.8,77.9,53.7,77.7
		C37.4,77.6,24.3,64.5,24.5,48.4z M47.3,64.2c0.1-0.3,0.2-0.5,0.3-0.6c1.7-5.2,3.5-10.4,5.2-15.7c0.1-0.4,0.1-0.9-0.1-1.3
		c-0.9-2.7-2.1-5.3-2.9-8c-0.5-1.7-1.3-2.7-3.2-2.5c-0.1,0-0.1,0-0.2,0c-0.7-0.1-1.2-0.4-1.2-1.2c0.1-0.8,0.6-1,1.4-1
		c1.2,0.1,2.4,0.2,3.6,0.2c3.2,0,6.4-0.1,9.6-0.2c0.7,0,1.2,0.1,1.4,0.9c0.2,0.7-0.3,1.2-1.1,1.4c-0.9,0.1-1.8,0.2-2.7,0.3
		c3.1,9.2,6.2,18.4,9.3,27.5c1.5-4.5,3-9,4.2-13.5c0.4-1.6,0.4-3.3,0.3-4.9c-0.1-2.2-1.3-4.2-2.4-6.1c-0.8-1.3-1.5-2.7-2-4.2
		c-0.7-2.5,0.7-5,3-5.7c0.4-0.1,0.7-0.2,1.3-0.3c-6.8-5.8-14.4-7.8-23-6c-6.7,1.4-12,5.2-16,11c0.8,0,1.4,0,2,0c2-0.1,4-0.2,6.1-0.3
		c0.2,0,0.6-0.1,0.7,0c0.4,0.3,0.9,0.7,0.9,1c0,0.4-0.5,1-0.8,1.1c-0.9,0.2-1.9,0.3-3,0.4C41,45.6,44.1,54.8,47.3,64.2z M62.3,72.9
		c-2.7-7.4-5.3-14.7-8.1-22.1c-2.6,7.6-5.2,15-7.7,22.5C51.9,74.8,57.1,74.7,62.3,72.9z M30.1,38.1c-5.7,12.4,0,28,12.2,33.5
		C38.2,60.4,34.2,49.3,30.1,38.1z M66.9,70.8c6.7-4.3,10.8-10,12.3-17.6c1.3-6.3-0.3-13.3-2.6-16.7c0.3,3.2-0.1,6.2-1.1,9.2
		c-2.7,7.9-5.5,15.8-8.2,23.8C67.2,69.9,67.1,70.2,66.9,70.8z"/>
	<path d="M47.3,64.2c-3.2-9.4-6.2-18.6-9.4-27.8c1.1-0.1,2.1-0.1,3-0.4c0.4-0.1,0.8-0.7,0.8-1.1c0-0.3-0.5-0.7-0.9-1
		c-0.2-0.1-0.5,0-0.7,0c-2,0.1-4,0.2-6.1,0.3c-0.6,0-1.2,0-2,0c4-5.8,9.3-9.6,16-11c8.5-1.8,16.2,0.2,23,6c-0.5,0.1-0.9,0.2-1.3,0.3
		c-2.3,0.7-3.8,3.2-3,5.7c0.4,1.5,1.2,2.9,2,4.2c1.1,1.9,2.2,3.9,2.4,6.1c0.1,1.6,0.1,3.4-0.3,4.9c-1.2,4.6-2.6,9-4.2,13.5
		c-3.1-9.2-6.2-18.3-9.3-27.5c1-0.1,1.9-0.1,2.7-0.3c0.9-0.1,1.3-0.7,1.1-1.4c-0.2-0.7-0.7-0.9-1.4-0.9c-3.2,0.1-6.4,0.2-9.6,0.2
		c-1.2,0-2.4-0.1-3.6-0.2c-0.7,0-1.3,0.2-1.4,1c-0.1,0.8,0.4,1.1,1.2,1.2c0.1,0,0.1,0,0.2,0c1.9-0.3,2.7,0.7,3.2,2.5
		c0.8,2.7,1.9,5.4,2.9,8c0.1,0.4,0.2,0.9,0.1,1.3c-1.7,5.2-3.5,10.4-5.2,15.7C47.5,63.7,47.4,63.8,47.3,64.2z"/>
	<path d="M62.3,72.9c-5.2,1.8-10.4,1.9-15.8,0.4c2.6-7.5,5.1-14.9,7.7-22.5C57,58.3,59.6,65.5,62.3,72.9z"/>
	<path d="M30.1,38.1c4.1,11.2,8.1,22.3,12.2,33.5C30.1,66.1,24.4,50.4,30.1,38.1z"/>
	<path d="M66.9,70.8c0.2-0.6,0.3-0.9,0.4-1.3c2.7-7.9,5.5-15.8,8.2-23.8c1-3,1.5-6.1,1.1-9.2c2.3,3.3,3.9,10.4,2.6,16.7
		C77.8,60.8,73.7,66.6,66.9,70.8z"/>
</g>
<g>
	<polyline class="st2" points="126.1,34.4 140.2,48.4 126.1,62.5 	"/>
	<rect x="106.3" y="41.2" class="st2" width="23.6" height="14.4"/>
</g>
</svg>
